<svg width="91" height="43" xmlns="http://www.w3.org/2000/svg">
 <!-- Generator: Sketch 39.1 (31720) - http://www.bohemiancoding.com/sketch -->
 <title>acme logo 1</title>
 <desc>Created with Sketch.</desc>

 <g>
  <title>background</title>
  <rect fill="none" id="canvas_background" height="45" width="93" y="-1" x="-1"/>
 </g>
 <g>
  <title>Layer 1</title>
  <g fill-rule="evenodd" fill="none" id="Page-1">
   <g stroke="null" id="Desktop-HD">
    <g stroke="null" id="acme-logo-1">
     <path stroke="null" fill="#221F20" id="Fill-80" d="m-68.23927,33.54166l-1.80065,0c-1.49205,0 -2.70203,-1.20191 -2.70203,-2.68403l0,-18.84093c0,-1.48212 1.20998,-2.68404 2.70203,-2.68404l1.50462,0c1.49205,0 2.70203,1.20192 2.70203,2.68404l0,19.135c0,1.31982 -1.07732,2.38996 -2.406,2.38996"/>
     <path stroke="null" fill="#221F20" id="Fill-81" d="m-30.28863,42.87405l-1.80066,0c-1.49205,0 -2.70202,-1.20192 -2.70202,-2.68403l0,-37.50571c0,-1.48211 1.20997,-2.68403 2.70202,-2.68403l1.50462,0c1.49205,0 2.70203,1.20192 2.70203,2.68403l0,37.79977c0,1.31983 -1.07732,2.38997 -2.40599,2.38997"/>
     <path stroke="null" fill="#221F20" id="Fill-82" d="m-55.58903,42.87405l-1.80065,0c-1.49205,0 -2.70203,-1.20192 -2.70203,-2.68403l0,-37.50571c0,-1.48211 1.20998,-2.68403 2.70203,-2.68403l1.50461,0c1.49205,0 2.70203,1.20192 2.70203,2.68403l0,37.79977c0,1.31983 -1.07732,2.38997 -2.40599,2.38997"/>
     <path stroke="null" fill="#221F20" id="Fill-83" d="m-17.63847,33.54166l-1.80065,0c-1.49205,0 -2.70203,-1.20191 -2.70203,-2.68403l0,-18.84093c0,-1.48212 1.20998,-2.68404 2.70203,-2.68404l1.50462,0c1.49204,0 2.70202,1.20192 2.70202,2.68404l0,19.135c0,1.31982 -1.07732,2.38996 -2.40599,2.38996"/>
     <path stroke="null" fill="#221F20" id="Fill-84" d="m-42.93887,34.30089l-1.80065,0c-1.49205,0 -2.70203,-1.20192 -2.70203,-2.68403l0,-18.30621c0,-1.48281 1.20998,-2.68403 2.70203,-2.68403l1.50462,0c1.49205,0 2.70202,1.20122 2.70202,2.68403l0,18.60027c0,1.31983 -1.07732,2.38997 -2.40599,2.38997"/>
     <path stroke="null" fill="#646384" id="Fill-85" d="m15.21755,23.48445l-1.42362,-3.07103l-0.01886,0l-1.40547,3.07103l2.84795,0zm-7.70112,3.98305l5.86486,-12.52618c0.05655,-0.11166 0.18782,-0.2046 0.31838,-0.2046l0.18781,0c0.13057,0 0.26253,0.09294 0.31838,0.2046l5.86487,12.52618c0.11241,0.24205 -0.03771,0.4841 -0.31838,0.4841l-2.07993,0c-0.33723,0 -0.48735,-0.11167 -0.65631,-0.46538l-0.67446,-1.47032l-5.09615,0l-0.67446,1.48905c-0.09356,0.22332 -0.30022,0.44665 -0.67446,0.44665l-2.06108,0c-0.28137,0 -0.43148,-0.24205 -0.31907,-0.4841l0,0z"/>
     <path stroke="null" fill="#646384" id="Fill-86" d="m34.79775,14.73665c1.87397,0 3.26059,0.57704 4.5348,1.7311c0.16827,0.14842 0.16827,0.37174 0.01815,0.52086l-1.46133,1.50777c-0.13126,0.13039 -0.33723,0.13039 -0.46849,0c-0.69331,-0.61448 -1.61144,-0.94947 -2.52957,-0.94947c-2.11694,0 -3.67252,1.74983 -3.67252,3.83463c0,2.06539 1.57444,3.77776 3.69137,3.77776c0.88043,0 1.83626,-0.31626 2.51072,-0.89329c0.13126,-0.11166 0.37494,-0.11166 0.48735,0.01873l1.46132,1.54453c0.13127,0.13038 0.11241,0.37243 -0.01885,0.50282c-1.27421,1.22827 -2.88565,1.80531 -4.55295,1.80531c-3.74723,0 -6.76414,-2.95937 -6.76414,-6.68165c0,-3.72227 3.01691,-6.7191 6.76414,-6.7191"/>
     <path stroke="null" fill="#646384" id="Fill-87" d="m50.38677,15.03446c0.01885,-0.16783 0.18712,-0.29753 0.33723,-0.29753l0.29953,0c0.09426,0 0.26252,0.07421 0.31908,0.18587l4.34698,8.04031l0.0377,0l4.34698,-8.04031c0.05586,-0.11166 0.22412,-0.18587 0.31838,-0.18587l0.29953,0c0.15011,0 0.31838,0.1297 0.33723,0.29753l2.11763,12.50746c0.03701,0.24204 -0.13126,0.40919 -0.35608,0.40919l-2.21119,0c-0.16897,0 -0.33723,-0.14842 -0.35608,-0.29753l-0.84343,-5.75091l-0.037,0l-3.14818,6.03041c-0.05585,0.11166 -0.22482,0.20459 -0.31838,0.20459l-0.33722,0c-0.11242,0 -0.26253,-0.09293 -0.31838,-0.20459l-3.16633,-6.03041l-0.0377,0l-0.82458,5.75091c-0.01885,0.14911 -0.16896,0.29753 -0.35608,0.29753l-2.21119,0c-0.22482,0 -0.39309,-0.16715 -0.35538,-0.40919l2.11693,-12.50746z"/>
     <path stroke="null" fill="#646384" id="Fill-88" d="m73.03967,15.27644c0,-0.18587 0.15012,-0.35371 0.35609,-0.35371l7.75698,0c0.20596,0 0.35608,0.16784 0.35608,0.35371l0,2.02863c0,0.18587 -0.15012,0.35371 -0.35608,0.35371l-5.19041,0l0,2.30813l4.27228,0c0.18711,0 0.35608,0.16715 0.35608,0.35371l0,2.02863c0,0.2046 -0.16897,0.35371 -0.35608,0.35371l-4.27228,0l0,2.51273l5.19041,0c0.20596,0 0.35608,0.16714 0.35608,0.35301l0,2.02932c0,0.18588 -0.15012,0.35371 -0.35608,0.35371l-7.75698,0c-0.20597,0 -0.35609,-0.16783 -0.35609,-0.35371l0,-12.32158z"/>
    </g>
   </g>
  </g>
 </g>
</svg>